<svg xmlns="http://www.w3.org/2000/svg" viewBox="0 0 256 256" width="256" height="256"><defs></defs><g transform="matrix(1,0,0,1,-33,18)">
<g transform="matrix(1,0,0,1,33,-18)">
	<g>
		<path d="M128,5.5C128,5.5 234.088112,66.75 234.088112,66.75 C234.088112,66.75 234.088112,189.25 234.088112,189.25 C234.088112,189.25 128,250.5 128,250.5 C128,250.5 21.911888,189.25 21.911888,189.25 C21.911888,189.25 21.911888,66.75 21.911888,66.75 C21.911888,66.75 128,5.5 128,5.5 Z" fill="#ffffff" fill-opacity="0" stroke="#000000" stroke-width="8" stroke-dasharray="0" stroke-linecap="round" stroke-miterlimit="10.800000000000002"/>
	</g>
	<g>
		<path d="M128,5.5C128,5.5 234.088112,66.75 234.088112,66.75 C234.088112,66.75 234.088112,189.25 234.088112,189.25 C234.088112,189.25 128,250.5 128,250.5 C128,250.5 21.911888,189.25 21.911888,189.25 C21.911888,189.25 21.911888,66.75 21.911888,66.75 C21.911888,66.75 128,5.5 128,5.5 Z" transform="matrix(1,0,0,1,0,0)" fill="#ffffff" fill-opacity="0" stroke="#ffffff" stroke-width="3" stroke-dasharray="0" stroke-linecap="round" stroke-miterlimit="10.800000000000002"/>
	</g>
	<g>
		<path d="" fill="none"/>
	</g>
</g></g></svg>