<?xml version="1.0" encoding="UTF-8" standalone="no"?>
<!-- Created with Inkscape (http://www.inkscape.org/) -->

<svg
   width="256"
   height="256"
   viewBox="0 0 67.733332 67.733333"
   version="1.1"
   id="svg1"
   inkscape:export-filename="hexadrakeicon.svg"
   inkscape:export-xdpi="96"
   inkscape:export-ydpi="96"
   sodipodi:docname="hexadrakeicon.svg"
   inkscape:version="1.4.3 (0d15f75042, 2025-12-25)"
   xmlns:inkscape="http://www.inkscape.org/namespaces/inkscape"
   xmlns:sodipodi="http://sodipodi.sourceforge.net/DTD/sodipodi-0.dtd"
   xmlns="http://www.w3.org/2000/svg"
   xmlns:svg="http://www.w3.org/2000/svg">
  <sodipodi:namedview
     id="namedview1"
     pagecolor="#ffffff"
     bordercolor="#000000"
     borderopacity="0.25"
     inkscape:showpageshadow="2"
     inkscape:pageopacity="0.0"
     inkscape:pagecheckerboard="0"
     inkscape:deskcolor="#d1d1d1"
     inkscape:document-units="mm"
     inkscape:zoom="3.1902669"
     inkscape:cx="110.17887"
     inkscape:cy="105.79052"
     inkscape:window-width="2560"
     inkscape:window-height="1364"
     inkscape:window-x="0"
     inkscape:window-y="0"
     inkscape:window-maximized="1"
     inkscape:current-layer="layer2" />
  <defs
     id="defs1">
    <inkscape:path-effect
       effect="mirror_symmetry"
       start_point="34.394459,-0.11728716"
       end_point="34.394459,67.616046"
       center_point="34.394459,33.74938"
       id="path-effect12"
       is_visible="true"
       lpeversion="1.2"
       lpesatellites=""
       mode="vertical"
       discard_orig_path="false"
       fuse_paths="false"
       oposite_fuse="false"
       split_items="false"
       split_open="false"
       link_styles="false" />
    <inkscape:path-effect
       effect="mirror_symmetry"
       start_point="41.978571,26.292857"
       end_point="41.721428,40.871368"
       center_point="41.85,33.582113"
       id="path-effect11"
       is_visible="true"
       lpeversion="1.2"
       lpesatellites=""
       mode="free"
       discard_orig_path="false"
       fuse_paths="false"
       oposite_fuse="false"
       split_items="false"
       split_open="false"
       link_styles="false" />
  </defs>
  <g
     inkscape:label="Layer 1"
     inkscape:groupmode="layer"
     id="layer1">
    <path
       sodipodi:type="star"
       style="fill:none;stroke:#442178;stroke-width:4.81849;stroke-dasharray:none"
       id="path1"
       inkscape:flatsided="true"
       sodipodi:sides="6"
       sodipodi:cx="34.07143"
       sodipodi:cy="31.564285"
       sodipodi:r1="29.359646"
       sodipodi:r2="25.426199"
       sodipodi:arg1="0.52359878"
       sodipodi:arg2="1.0471976"
       inkscape:rounded="0"
       inkscape:randomized="0"
       d="M 59.497629,46.244108 34.07143,60.923931 8.645231,46.244108 8.6452311,16.884462 34.07143,2.2046394 59.497629,16.884462 Z"
       transform="matrix(1.0666268,0,0,1.0240635,-2.4748356,1.542834)" />
  </g>
  <g
     inkscape:groupmode="layer"
     id="layer2"
     inkscape:label="Layer 2">
    <path
       style="display:inline;fill:#442178;fill-opacity:1;stroke:none;stroke-width:1.32292;stroke-dasharray:none"
       d="M 34.394459,61.176835 V 46.741147 c 0,0 -6.380415,0.04772 -9.14438,-3.913537 -3.456764,-4.954156 0.829755,-12.004895 0.829755,-12.004895 0,0 -3.543444,-5.684809 -7.967299,-6.310392 -3.24056,-0.458251 -7.961241,3.624098 -7.961241,3.624098 0,0 6.257506,1.178873 6.599311,4.961029 0.200938,2.223437 -3.817364,4.443116 -3.817364,4.443116 0,0 2.819807,2.532873 3.793537,4.95753 1.746007,4.347679 -0.968892,6.400953 -0.968892,6.400953 0,0 4.762336,-0.328792 7.609589,2.305175 1.982174,1.833691 4.999978,7.761978 4.999978,7.761978 z m 0,0 V 46.741147 c 0,0 6.380415,0.04772 9.14438,-3.913537 3.456764,-4.954156 -0.829755,-12.004895 -0.829755,-12.004895 0,0 3.543444,-5.684809 7.967299,-6.310392 3.24056,-0.458251 7.961241,3.624098 7.961241,3.624098 0,0 -6.257506,1.178873 -6.599311,4.961029 -0.200938,2.223437 3.817364,4.443116 3.817364,4.443116 0,0 -2.819807,2.532873 -3.793537,4.95753 -1.746007,4.347679 0.968892,6.400953 0.968892,6.400953 0,0 -4.762336,-0.328792 -7.609589,2.305175 -1.982174,1.833691 -4.999978,7.761978 -4.999978,7.761978 z"
       id="path12"
       sodipodi:nodetypes="ccscscscscscc"
       inkscape:path-effect="#path-effect12"
       inkscape:original-d="M 34.394459,61.176835 V 46.741147 c 0,0 -6.380415,0.04772 -9.14438,-3.913537 -3.456764,-4.954156 0.829755,-12.004895 0.829755,-12.004895 0,0 -3.543444,-5.684809 -7.967299,-6.310392 -3.24056,-0.458251 -7.961241,3.624098 -7.961241,3.624098 0,0 6.257506,1.178873 6.599311,4.961029 0.200938,2.223437 -3.817364,4.443116 -3.817364,4.443116 0,0 2.819807,2.532873 3.793537,4.95753 1.746007,4.347679 -0.968892,6.400953 -0.968892,6.400953 0,0 4.762336,-0.328792 7.609589,2.305175 1.982174,1.833691 4.999978,7.761978 4.999978,7.761978 z"
       transform="translate(-0.52779217,0.11728716)" />
    <path
       style="fill:#442178;stroke:none;stroke-width:0.3"
       d="m 26.704924,48.433772 c 0,0 4.723812,-4.2973 4.139106,-7.083787 -0.486278,-2.317422 -1.537444,-3.551737 -1.702904,-4.952089 0,0 -0.07097,-2.218909 0.238436,-3.265548 0.297252,-1.00553 1.307501,-1.326549 1.513553,-2.757572 -2.052477,-1.057592 -2.685997,-0.04459 -2.685997,-0.04459 0,0 0.423459,-1.575685 1.082927,-1.853093 0.992053,-0.417312 3.131894,0.784928 3.131894,0.784928 0,0 -0.435985,-0.891792 -0.823486,-1.169633 -0.557666,-0.399849 -1.974548,-0.582232 -1.974548,-0.582232 0,0 1.149567,-0.816322 1.790817,-0.739513 1.36672,0.163704 2.985616,1.300609 3.336627,2.432987 0.443443,1.430567 2.880196,2.892039 2.880196,2.892039 -0.159776,0.396049 -0.219819,0.871884 -0.772329,0.953745 -0.229305,0.03397 -0.887239,-0.478471 -1.295204,-0.526668 -0.407965,-0.0482 -1.737216,0.09503 -1.737216,0.09503 l 2.617795,1.178474 c 0,0 -0.189387,0.569177 -0.407006,0.579837 -0.456368,-0.07251 -0.722865,0.276459 -0.722865,0.276459 -0.607382,-0.603437 -0.484409,0.08162 -0.940974,0.240863 0,0 -0.167906,-1.034622 -0.713998,-1.089347 -0.824962,-0.08267 -1.120052,-0.0318 -1.387849,0.499722 -0.596828,1.184594 0.494119,1.208089 1.440988,2.519138 0.808612,1.119616 3.652139,3.59839 4.964075,5.083298 1.718518,1.945096 3.603679,6.691622 3.598919,6.693407 -5.405191,4.242133 -11.813994,2.41244 -15.570961,-0.165857 z"
       id="path2"
       sodipodi:nodetypes="cssascacacascszcccccscssccc" />
  </g>
</svg>
